<svg width="512" height="512" viewBox="0 0 512 512" fill="none" xmlns="http://www.w3.org/2000/svg">
  <style>
    @media (prefers-color-scheme: dark) {
      path { fill: #e4e2d8; }
    }
    @media (prefers-color-scheme: light) {
      path { fill: #354550; }
    }
  </style>
<path d="M424.865 343.135C410.87 357.13 388.175 357.13 374.18 343.135L312.389 281.341C298.391 267.346 298.391 244.654 312.389 230.657L374.18 168.866C388.175 154.869 410.87 154.869 424.865 168.866L486.659 230.657C500.654 244.654 500.654 267.346 486.659 281.341L424.865 343.135ZM137.82 343.135C123.824 357.13 101.131 357.13 87.1345 343.135L25.3428 281.341C11.3464 267.346 11.3464 244.654 25.3427 230.657L87.1345 168.866C101.131 154.869 123.824 154.869 137.82 168.866L199.612 230.657C213.608 244.654 213.608 267.346 199.612 281.341L137.82 343.135ZM281.344 486.656C267.346 500.654 244.654 500.654 230.657 486.656L168.866 424.865C154.869 410.87 154.869 388.175 168.866 374.18L230.657 312.389C244.654 298.391 267.346 298.391 281.344 312.389L343.135 374.18C357.13 388.175 357.13 410.87 343.135 424.865L281.344 486.656ZM281.344 199.611C267.346 213.608 244.654 213.608 230.657 199.611L168.866 137.82C154.869 123.823 154.869 101.131 168.866 87.1342L230.657 25.3426C244.654 11.3462 267.346 11.3462 281.344 25.3426L343.135 87.1342C357.13 101.131 357.13 123.823 343.135 137.82L281.344 199.611Z"/>
</svg>
