<svg width="16" height="16" viewBox="0 0 16 16" xmlns="http://www.w3.org/2000/svg">
<path fill-rule="evenodd" clip-rule="evenodd" d="M16 3C16 1.34315 14.6569 0 13 0H3C1.34315 0 0 1.34315 0 3V13C0 14.6569 1.34315 16 3 16H13C14.6569 16 16 14.6569 16 13V3ZM4.12866 9.29188C4.12866 5.89988 6.46466 2.82788 9.31266 2.82788C11.2807 2.82788 11.9847 4.12388 11.8567 6.84388L9.69666 6.87588C9.72866 5.38788 9.56866 4.85988 8.83266 4.85988C7.39266 4.85988 6.43266 7.13188 6.43266 8.95588C6.43266 11.0359 7.71266 11.6279 10.9607 10.6039L10.7207 12.6199C6.41666 14.0439 4.12866 12.6359 4.12866 9.29188Z"/>
</svg>
