<svg xmlns="http://www.w3.org/2000/svg" xmlns:xlink="http://www.w3.org/1999/xlink" viewBox="0 0 192 224" width="192" height="224" preserveAspectRatio="xMidYMid meet" style="width: 100%; height: 100%; transform: translate3d(0px, 0px, 0px); content-visibility: visible;"><defs><clipPath id="__lottie_element_543"><rect width="192" height="224" x="0" y="0"></rect></clipPath></defs><g clip-path="url(#__lottie_element_543)"><g transform="matrix(-3.106590509414673,0,0,3.200000047683716,107.14981842041016,118.20079803466797)" opacity="1" style="display: block;"><g opacity="1" transform="matrix(2,0,0,2,0,0)"><path fill="white" fill-opacity="1" d=" M-0.6460000276565552,-8.868000030517578 C-0.23000000417232513,-9.861000061035156 0.492000013589859,-10.878000259399414 0.7720000147819519,-10.878999710083008 C0.9409999847412109,-10.876999855041504 1.8860000371932983,-9.52400016784668 2.1579999923706055,-8.899999618530273 C2.3570001125335693,-8.435999870300293 2.563999891281128,-7.730000019073486 2.630000114440918,-7.315000057220459 C2.6410000324249268,-7.294000148773193 2.6519999504089355,-7.2729997634887695 2.6579999923706055,-7.25 C2.7829999923706055,-6.75 2.76200008392334,-5.739999771118164 2.7360000610351562,-5.296999931335449 C2.7360000610351562,-5.296999931335449 2.7209999561309814,-5.296999931335449 2.7209999561309814,-5.296999931335449 C2.7079999446868896,-5.13100004196167 2.681999921798706,-4.919000148773193 2.6419999599456787,-4.6529998779296875 C2.6419999599456787,-4.6529998779296875 2.615000009536743,-4.4720001220703125 2.615000009536743,-4.4720001220703125 C2.3489999771118164,-2.8440001010894775 2.0439999103546143,-2.0490000247955322 1.4019999504089355,-1.378000020980835 C1.4019999504089355,-1.378000020980835 1.3569999933242798,-1.3320000171661377 1.3569999933242798,-1.3320000171661377 C0.7910000085830688,-0.7580000162124634 0.46399998664855957,-0.6039999723434448 -0.33500000834465027,-0.5659999847412109 C-0.33500000834465027,-0.5659999847412109 -0.4129999876022339,-0.5640000104904175 -0.4129999876022339,-0.5640000104904175 C-0.4129999876022339,-0.5640000104904175 -1.1100000143051147,-0.531000018119812 -1.1100000143051147,-0.531000018119812 C-1.1100000143051147,-0.531000018119812 -1.093999981880188,-3.0299999713897705 -1.093999981880188,-3.0299999713897705 C-1.093999981880188,-3.0299999713897705 -1.0729999542236328,-5.310999870300293 -1.0729999542236328,-5.310999870300293 C-1.0729999542236328,-5.310999870300293 -1.13100004196167,-6.796999931335449 -1.13100004196167,-6.796999931335449 C-1.1579999923706055,-6.811999797821045 -1.1640000343322754,-6.923999786376953 -1.1419999599456787,-7.051000118255615 C-1.1419999599456787,-7.051000118255615 -1.1330000162124634,-7.1020002365112305 -1.1330000162124634,-7.1020002365112305 C-0.9990000128746033,-7.894999980926514 -0.9039999842643738,-8.236000061035156 -0.675000011920929,-8.795999526977539 C-0.675000011920929,-8.795999526977539 -0.6460000276565552,-8.868000030517578 -0.6460000276565552,-8.868000030517578z M-1.1069999933242798,4.947999954223633 C-1.1069999933242798,4.947999954223633 -1.093999981880188,2.872999906539917 -1.093999981880188,2.872999906539917 C-1.093999981880188,2.872999906539917 -1.0700000524520874,0.21400000154972076 -1.0700000524520874,0.21400000154972076 C-1.0700000524520874,0.21400000154972076 -0.6290000081062317,0.23100000619888306 -0.6290000081062317,0.23100000619888306 C0.6470000147819519,0.29499998688697815 1.9240000247955322,1.1230000257492065 2.549999952316284,2.2960000038146973 C2.885999917984009,2.928999900817871 3.134999990463257,3.937999963760376 3.190999984741211,4.89900016784668 C3.190999984741211,4.89900016784668 3.194999933242798,4.952000141143799 3.194999933242798,4.952000141143799 C3.200000047683716,5.0229997634887695 3.203000068664551,5.086999893188477 3.2070000171661377,5.145999908447266 C3.2119998931884766,5.159999847412109 3.2179999351501465,5.172999858856201 3.2200000286102295,5.186999797821045 C3.2960000038146973,5.736999988555908 3.1540000438690186,6.511000156402588 3.0439999103546143,6.965000152587891 C3.0439999103546143,6.965000152587891 3.046999931335449,6.965000152587891 3.046999931335449,6.965000152587891 C3.046999931335449,6.965000152587891 3.0350000858306885,7.008999824523926 3.0350000858306885,7.008999824523926 C3.0209999084472656,7.064000129699707 3.009999990463257,7.11299991607666 2.997999906539917,7.156000137329102 C2.997999906539917,7.156000137329102 2.993000030517578,7.1570000648498535 2.993000030517578,7.1570000648498535 C2.993000030517578,7.1570000648498535 2.934999942779541,7.364999771118164 2.934999942779541,7.364999771118164 C2.934999942779541,7.364999771118164 2.9159998893737793,7.422999858856201 2.9159998893737793,7.422999858856201 C2.74399995803833,7.959000110626221 2.441999912261963,8.626999855041504 2.109999895095825,9.184000015258789 C2.109999895095825,9.184000015258789 2.0999999046325684,9.201000213623047 2.0999999046325684,9.201000213623047 C1.7920000553131104,9.71500015258789 0.8289999961853027,10.902999877929688 0.7239999771118164,10.904999732971191 C0.6940000057220459,10.904000282287598 0.5699999928474426,10.822999954223633 0.4440000057220459,10.722999572753906 C0.4440000057220459,10.722999572753906 0.41200000047683716,10.696999549865723 0.41200000047683716,10.696999549865723 C-0.3009999990463257,10.095999717712402 -0.9179999828338623,8.678000450134277 -1.0779999494552612,7.293000221252441 C-1.0779999494552612,7.293000221252441 -1.1319999694824219,6.813000202178955 -1.1319999694824219,6.813000202178955 C-1.1319999694824219,6.813000202178955 -1.1349999904632568,6.811999797821045 -1.1349999904632568,6.811999797821045 C-1.1349999904632568,6.811999797821045 -1.1119999885559082,4.948999881744385 -1.1119999885559082,4.948999881744385 C-1.1119999885559082,4.948999881744385 -1.1069999933242798,4.947999954223633 -1.1069999933242798,4.947999954223633z M3.9140000343322754,-7.426000118255615 C3.506999969482422,-9.340999603271484 2.5999999046325684,-10.793000221252441 1.2690000534057617,-11.687999725341797 C1.2690000534057617,-11.687999725341797 0.7960000038146973,-12 0.7960000038146973,-12 C0.7919999957084656,-11.99899959564209 0.7200000286102295,-11.970999717712402 0.5730000138282776,-11.866999626159668 C0.5730000138282776,-11.866999626159668 0.5329999923706055,-11.840999603271484 0.5329999923706055,-11.840999603271484 C0.18299999833106995,-11.604000091552734 -0.460999995470047,-10.96500015258789 -0.7900000214576721,-10.526000022888184 C-1.1180000305175781,-10.086000442504883 -1.6230000257492065,-9.133999824523926 -1.7109999656677246,-8.77299976348877 C-1.7960000038146973,-8.456000328063965 -1.8660000562667847,-8.45199966430664 -2.0139999389648438,-8.76099967956543 C-2.0139999389648438,-8.76099967956543 -2.0420000553131104,-8.819000244140625 -2.0420000553131104,-8.819000244140625 C-2.249000072479248,-9.246000289916992 -2.943000078201294,-9.937999725341797 -3.384000062942505,-10.157999992370605 C-3.9119999408721924,-10.406000137329102 -4.488999843597412,-10.550000190734863 -4.697999954223633,-10.470000267028809 C-4.933000087738037,-10.378999710083008 -4.923999786376953,-10.302000045776367 -4.618000030517578,-10.125 C-4.618000030517578,-10.125 -4.561999797821045,-10.093999862670898 -4.561999797821045,-10.093999862670898 C-3.5769999027252197,-9.532999992370605 -2.6480000019073486,-8.019000053405762 -2.568000078201294,-6.817999839782715 C-2.568000078201294,-6.817999839782715 -2.696000099182129,-6.218999862670898 -2.696000099182129,-6.218999862670898 C-2.696000099182129,-6.218999862670898 -2.7009999752044678,-4.790999889373779 -2.7009999752044678,-4.790999889373779 C-2.7009999752044678,-4.790999889373779 -2.696000099182129,-4.791999816894531 -2.696000099182129,-4.791999816894531 C-2.6610000133514404,-4.7820000648498535 -2.63700008392334,-3.1610000133514404 -2.631999969482422,-1.0210000276565552 C-2.631999969482422,-1.0210000276565552 -2.63100004196167,-0.026000000536441803 -2.63100004196167,-0.026000000536441803 C-2.638000011444092,3.3459999561309814 -2.6540000438690186,4.533999919891357 -2.7170000076293945,4.714000225067139 C-2.7170000076293945,4.714000225067139 -2.7170000076293945,6.436999797821045 -2.7170000076293945,6.436999797821045 C-2.7170000076293945,6.436999797821045 -2.75600004196167,6.4670000076293945 -2.75600004196167,6.4670000076293945 C-2.75600004196167,6.4670000076293945 -2.759999990463257,6.828999996185303 -2.759999990463257,6.828999996185303 C-2.759999990463257,6.828999996185303 -2.759999990463257,6.868000030517578 -2.759999990463257,6.868000030517578 C-2.7890000343322754,8.092000007629395 -3.433000087738037,9.50100040435791 -4.193999767303467,9.968999862670898 C-4.193999767303467,9.968999862670898 -4.211999893188477,9.979999542236328 -4.211999893188477,9.979999542236328 C-4.620999813079834,10.244000434875488 -4.589000225067139,10.368000030517578 -4.123000144958496,10.3100004196167 C-4.123000144958496,10.3100004196167 -4.081999778747559,10.305000305175781 -4.081999778747559,10.305000305175781 C-3.265000104904175,10.1850004196167 -2.575000047683716,9.631999969482422 -2.1429998874664307,8.75100040435791 C-2.1429998874664307,8.75100040435791 -2.006999969482422,8.463000297546387 -2.006999969482422,8.463000297546387 C-2.006999969482422,8.463000297546387 -1.9509999752044678,8.70300006866455 -1.9509999752044678,8.70300006866455 C-1.9509999752044678,8.70300006866455 -1.9459999799728394,8.725000381469727 -1.9459999799728394,8.725000381469727 C-1.909999966621399,8.864999771118164 -1.8270000219345093,9.104999542236328 -1.7430000305175781,9.279999732971191 C-1.6629999876022339,9.470999717712402 -1.590999960899353,9.638999938964844 -1.590000033378601,9.663999557495117 C-1.590000033378601,9.663999557495117 -1.590000033378601,9.668999671936035 -1.590000033378601,9.668999671936035 C-1.5720000267028809,9.779999732971191 -0.9860000014305115,10.637999534606934 -0.7260000109672546,10.92199993133545 C-0.5659999847412109,11.105999946594238 -0.1889999955892563,11.40999984741211 0.10700000077486038,11.60200023651123 C0.41100001335144043,11.802000045776367 0.6520000100135803,11.979000091552734 0.6520000100135803,11.994999885559082 C0.652999997138977,12.008999824523926 0.8920000195503235,11.993000030517578 0.8920000195503235,11.963000297546387 C0.8920000195503235,11.92300033569336 1.0759999752044678,11.795000076293945 1.2920000553131104,11.675000190734863 C1.2920000553131104,11.675000190734863 1.3279999494552612,11.654999732971191 1.3279999494552612,11.654999732971191 C2.1040000915527344,11.218999862670898 3.2130000591278076,10.215999603271484 3.5759999752044678,9.616000175476074 C4.9720001220703125,7.309999942779541 5.031000137329102,5.776000022888184 4.684999942779541,4.127999782562256 C4.556000232696533,3.510999917984009 4.320000171661377,2.8420000076293945 4.056000232696533,2.368000030517578 C3.5360000133514404,1.4229999780654907 2.49399995803833,0.4309999942779541 1.5089999437332153,-0.06599999964237213 C1.5089999437332153,-0.06599999964237213 1.284999966621399,-0.17900000512599945 1.284999966621399,-0.17900000512599945 C1.284999966621399,-0.17900000512599945 1.7330000400543213,-0.41100001335144043 1.7330000400543213,-0.41100001335144043 C1.7330000400543213,-0.41100001335144043 1.7699999809265137,-0.4300000071525574 1.7699999809265137,-0.4300000071525574 C2.444999933242798,-0.781000018119812 3.0850000381469727,-1.4739999771118164 3.4549999237060547,-2.244999885559082 C3.7909998893737793,-2.950000047683716 4.072000026702881,-4.151000022888184 4.104000091552734,-4.9679999351501465 C4.104000091552734,-4.9679999351501465 4.10699987411499,-5.035999774932861 4.10699987411499,-5.035999774932861 C4.118000030517578,-5.235000133514404 4.1620001792907715,-6.1020002365112305 4.072000026702881,-6.682000160217285 C4.072000026702881,-6.682000160217285 3.9140000343322754,-7.426000118255615 3.9140000343322754,-7.426000118255615z"></path></g></g><g transform="matrix(-3.106590509414673,0,0,3.200000047683716,101.5944595336914,118.39839935302734)" opacity="1" style="display: block;"><g opacity="1" transform="matrix(2,0,0,2,0,0)"><path fill="white" fill-opacity="1" d=" M3.177999973297119,-6.7129998207092285 C2.247999906539917,-6.985000133514404 -0.8769999742507935,-7.546000003814697 -3.421999931335449,-6.271999835968018 C-3.421999931335449,-6.271999835968018 -3.9730000495910645,-6.00600004196167 -3.9730000495910645,-6.00600004196167 C-5.067999839782715,-5.464000225067139 -6.5920000076293945,-4.107999801635742 -7.810999870300293,-2.619999885559082 C-8.130999565124512,-2.2200000286102295 -8.588000297546387,-1.7309999465942383 -8.82800006866455,-1.531000018119812 C-8.82800006866455,-1.531000018119812 -8.881999969482422,-1.4850000143051147 -8.881999969482422,-1.4850000143051147 C-9.388999938964844,-1.059999942779541 -10.359999656677246,-0.33899998664855957 -10.437999725341797,-0.33799999952316284 C-10.467000007629395,-0.33799999952316284 -10.491999626159668,-0.2680000066757202 -10.493000030517578,-0.26499998569488525 C-10.493000030517578,-0.26499998569488525 -10.142000198364258,0.023000000044703484 -10.142000198364258,0.023000000044703484 C-10.142000198364258,0.023000000044703484 -10.095000267028809,0.06199999898672104 -10.095000267028809,0.06199999898672104 C-9.666000366210938,0.42800000309944153 -8.82800006866455,1.343999981880188 -7.874000072479248,2.492000102996826 C-7.874000072479248,2.492000102996826 -7.64300012588501,2.7720000743865967 -7.64300012588501,2.7720000743865967 C-6.247000217437744,4.453999996185303 -5.458000183105469,5.177999973297119 -4.379000186920166,5.744999885559082 C-4.379000186920166,5.744999885559082 -3.6459999084472656,6.132999897003174 -3.6459999084472656,6.132999897003174 C-1.2359999418258667,7.354000091552734 1.7949999570846558,7.315000057220459 4.145999908447266,6.421999931335449 C4.306000232696533,6.357999801635742 4.514999866485596,6.269999980926514 4.603000164031982,6.23799991607666 C6.039999961853027,5.623000144958496 6.171999931335449,5.576000213623047 6.690000057220459,5.6020002365112305 C6.690000057220459,5.6020002365112305 6.757999897003174,5.605000019073486 6.757999897003174,5.605000019073486 C7.190000057220459,5.620999813079834 7.390999794006348,5.677000045776367 7.583000183105469,5.813000202178955 C7.583000183105469,5.813000202178955 7.5980000495910645,5.824999809265137 7.5980000495910645,5.824999809265137 C7.894999980926514,6.0289998054504395 8,5.986000061035156 8.006999969482422,5.644000053405762 C8.006999969482422,5.644000053405762 8.006999969482422,5.605000019073486 8.006999969482422,5.605000019073486 C8.006999969482422,5.10099983215332 7.591000080108643,4.708000183105469 7.046000003814697,4.708000183105469 C7.046000003814697,4.708000183105469 7.03000020980835,4.706999778747559 7.03000020980835,4.706999778747559 C6.908999919891357,4.704999923706055 6.804999828338623,4.683000087738037 6.813000202178955,4.6519999504089355 C6.813000202178955,4.6519999504089355 6.814000129699707,4.646999835968018 6.814000129699707,4.646999835968018 C6.84499979019165,4.52400016784668 7.664999961853027,3.865999937057495 8.204000473022461,3.5329999923706055 C8.204000473022461,3.5329999923706055 8.272000312805176,3.492000102996826 8.272000312805176,3.492000102996826 C8.800999641418457,3.1689999103546143 9.10200023651123,3.0940001010894775 9.015999794006348,3.305999994277954 C8.944000244140625,3.50600004196167 9.13599967956543,3.9149999618530273 9.35200023651123,3.994999885559082 C9.663999557495117,4.114999771118164 10.145999908447266,4.002999782562256 10.329999923706055,3.7709999084472656 C10.336999893188477,3.76200008392334 10.51099967956543,3.5250000953674316 10.491999626159668,3.305999994277954 C10.472999572753906,3.0880000591278076 10.258999824523926,2.8519999980926514 10.25,2.8420000076293945 C10.25,2.8420000076293945 10.217000007629395,2.803999900817871 10.217000007629395,2.803999900817871 C9.887999534606934,2.436000108718872 9.616000175476074,2.36299991607666 8.86400032043457,2.4019999504089355 C8.119000434875488,2.441999912261963 7.598999977111816,2.6579999923706055 6.966000080108643,3.194999933242798 C6.966000080108643,3.194999933242798 6.927999973297119,3.2260000705718994 6.927999973297119,3.2260000705718994 C6.736999988555908,3.385999917984009 6.573999881744385,3.505000114440918 6.541999816894531,3.50600004196167 C6.510000228881836,3.50600004196167 6.485000133514404,3.3940000534057617 6.485000133514404,3.2660000324249268 C6.485000133514404,3.2660000324249268 6.485000133514404,3.240000009536743 6.485000133514404,3.240000009536743 C6.47599983215332,2.9579999446868896 6.324999809265137,2.6419999599456787 6.099999904632568,2.433000087738037 C5.84499979019165,2.2090001106262207 5.739999771118164,2.2990000247955322 5.755000114440918,2.7090001106262207 C5.755000114440918,2.7090001106262207 5.757999897003174,2.7899999618530273 5.757999897003174,2.7899999618530273 C5.770999908447266,3.2300000190734863 5.5960001945495605,3.7260000705718994 5.308000087738037,4.116000175476074 C5.1479997634887695,4.329999923706055 4.635000228881836,4.72599983215332 4.309000015258789,4.918000221252441 C4.309000015258789,4.918000221252441 4.309999942779541,4.938000202178955 4.309999942779541,4.938000202178955 C3.878000020980835,5.334000110626221 2.4100000858306885,6.081999778747559 -0.0020000000949949026,5.9070000648498535 C-2.2939999103546143,5.741000175476074 -3.940000057220459,4.6579999923706055 -4.567999839782715,4.059000015258789 C-4.803999900817871,3.8550000190734863 -5.058000087738037,3.614000082015991 -5.223999977111816,3.4260001182556152 C-5.223999977111816,3.4260001182556152 -5.248000144958496,3.4000000953674316 -5.248000144958496,3.4000000953674316 C-5.7270002365112305,2.8570001125335693 -6.40500020980835,1.6449999809265137 -6.570000171661377,1.0390000343322754 C-6.642000198364258,0.7590000033378601 -6.681000232696533,0.703000009059906 -6.793000221252441,0.7509999871253967 C-6.793000221252441,0.7509999871253967 -6.815999984741211,0.7609999775886536 -6.815999984741211,0.7609999775886536 C-7.52400016784668,1.0549999475479126 -8.33899974822998,0.6159999966621399 -8.354999542236328,-0.0729999989271164 C-8.354999542236328,-0.0729999989271164 -8.355999946594238,-0.09399999678134918 -8.355999946594238,-0.09399999678134918 C-8.359999656677246,-0.31200000643730164 -8.300000190734863,-0.41600000858306885 -8.067000389099121,-0.6259999871253967 C-7.9070000648498535,-0.777999997138977 -7.622000217437744,-0.9380000233650208 -7.354000091552734,-0.9380000233650208 C-7.085999965667725,-0.9380000233650208 -7.130000114440918,-0.9139999747276306 -7.010000228881836,-0.8500000238418579 C-6.757999897003174,-0.7170000076293945 -6.732999801635742,-0.7009999752044678 -6.730000019073486,-0.906000018119812 C-6.730000019073486,-0.906000018119812 -6.729000091552734,-1.0290000438690186 -6.729000091552734,-1.0290000438690186 C-6.72599983215332,-1.1740000247955322 -6.506999969482422,-2.0969998836517334 -6.218999862670898,-2.5160000324249268 C-5.896999835968018,-2.9839999675750732 -5.2179999351501465,-3.924999952316284 -4.5,-4.448999881744385 C-3.6110000610351562,-5.160999774932861 -1.9850000143051147,-5.984000205993652 0.34200000762939453,-5.984000205993652 C0.4230000078678131,-5.984000205993652 0.5019999742507935,-5.980999946594238 0.5789999961853027,-5.980000019073486 C0.9860000014305115,-5.988999843597412 1.3509999513626099,-5.9730000495910645 1.5880000591278076,-5.925000190734863 C2.489000082015991,-5.834000110626221 3.066999912261963,-5.644999980926514 3.4230000972747803,-5.429999828338623 C3.7769999504089355,-5.27400016784668 4.5,-4.598999977111816 4.964000225067139,-3.9730000495910645 C5.380000114440918,-3.3970000743865967 5.5,-2.677000045776367 5.308000087738037,-1.8680000305175781 C5.308000087738037,-1.8680000305175781 5.303999900817871,-1.8539999723434448 5.303999900817871,-1.8539999723434448 C5.270999908447266,-1.7120000123977661 5.285999774932861,-1.694000005722046 5.413000106811523,-1.7280000448226929 C5.413000106811523,-1.7280000448226929 5.452000141143799,-1.7389999628067017 5.452000141143799,-1.7389999628067017 C5.883999824523926,-1.8589999675750732 6.324999809265137,-2.619999885559082 6.324999809265137,-3.2290000915527344 C6.324999809265137,-3.2290000915527344 6.324999809265137,-3.6449999809265137 6.324999809265137,-3.6449999809265137 C6.324999809265137,-3.6449999809265137 6.909999847412109,-3.0450000762939453 6.909999847412109,-3.0450000762939453 C6.909999847412109,-3.0450000762939453 6.97599983215332,-2.9760000705718994 6.97599983215332,-2.9760000705718994 C7.692999839782715,-2.252000093460083 8.17199993133545,-2.0169999599456787 9.02400016784668,-1.975000023841858 C9.02400016784668,-1.975000023841858 9.104000091552734,-1.9709999561309814 9.104000091552734,-1.9709999561309814 C9.670999526977539,-1.9479999542236328 9.803000450134277,-1.968999981880188 9.991000175476074,-2.0989999771118164 C9.991000175476074,-2.0989999771118164 10.024999618530273,-2.124000072479248 10.024999618530273,-2.124000072479248 C10.152999877929688,-2.2200000286102295 10.314000129699707,-2.388000011444092 10.378000259399414,-2.5 C10.45300006866455,-2.6500000953674316 10.451000213623047,-3.244999885559082 10.392999649047852,-3.3420000076293945 C10.16100025177002,-3.7739999294281006 9.456000328063965,-3.940999984741211 9.184000015258789,-3.63700008392334 C9.02400016784668,-3.4609999656677246 8.968000411987305,-3.1489999294281006 9.064000129699707,-2.9570000171661377 C9.064000129699707,-2.9570000171661377 9.069000244140625,-2.946000099182129 9.069000244140625,-2.946000099182129 C9.168999671936035,-2.7330000400543213 8.831000328063965,-2.7890000343322754 8.401000022888184,-3.058000087738037 C8.401000022888184,-3.058000087738037 8.342000007629395,-3.0959999561309814 8.342000007629395,-3.0959999561309814 C7.8420000076293945,-3.4170000553131104 6.959000110626221,-4.26200008392334 7.013000011444092,-4.349999904632568 C7.0370001792907715,-4.389999866485596 7.125999927520752,-4.422999858856201 7.2220001220703125,-4.422999858856201 C7.304999828338623,-4.422999858856201 7.526000022888184,-4.534999847412109 7.723999977111816,-4.672999858856201 C7.723999977111816,-4.672999858856201 7.765999794006348,-4.703000068664551 7.765999794006348,-4.703000068664551 C8.303000450134277,-5.09499979019165 8.550999641418457,-5.76800012588501 8.32699966430664,-6.191999912261963 C8.21500015258789,-6.392000198364258 8.086999893188477,-6.383999824523926 8.086999893188477,-6.176000118255615 C8.086999893188477,-5.927999973297119 7.677999973297119,-5.567999839782715 7.2779998779296875,-5.464000225067139 C6.65500020980835,-5.295000076293945 6.230999946594238,-5.390999794006348 4.682000160217285,-6.122000217437744 C4.682000160217285,-6.122000217437744 4.482999801635742,-6.2170000076293945 4.482999801635742,-6.2170000076293945 C4.243000030517578,-6.328999996185303 3.8499999046325684,-6.488999843597412 3.609999895095825,-6.568999767303467 C3.609999895095825,-6.568999767303467 3.177999973297119,-6.7129998207092285 3.177999973297119,-6.7129998207092285z"></path></g></g><g transform="matrix(-2.737683057785034,0,0,2.820000171661377,100,119)" opacity="1" style="display: block;"><g opacity="1" transform="matrix(2,0,0,2,0,0)"><path stroke-linecap="butt" stroke-linejoin="miter" fill-opacity="0" stroke-miterlimit="4" stroke="rgb(0,0,0)" stroke-opacity="1" stroke-width="1" d=" M15.133999824523926,0 C15.133999824523926,10.567999839782715 9.567999839782715,18.134000778198242 0,18.134000778198242 C-9.567999839782715,18.134000778198242 -15.133999824523926,10.567999839782715 -15.133999824523926,0 C-15.133999824523926,-10.567999839782715 -9.567999839782715,-18.134000778198242 0,-18.134000778198242 C9.567999839782715,-18.134000778198242 15.133999824523926,-10.567999839782715 15.133999824523926,0z"></path></g></g></g></svg>
