<svg version="1.1" id="Layer_1" xmlns="http://www.w3.org/2000/svg" xmlns:xlink="http://www.w3.org/1999/xlink" x="0px" y="0px"
	 width="100%" viewBox="0 0 1024 1024" enable-background="new 0 0 1024 1024" xml:space="preserve">
<path fill="white" opacity="1.000000" stroke="none"
	d="
M474.797546,729.619019
	C497.780182,728.273132 519.911438,724.645081 540.916504,716.241882
	C568.081177,705.374512 588.747437,686.436768 605.058228,662.458191
	C605.974304,661.111572 606.517334,659.423523 608.308594,658.725159
	C609.961609,659.479614 610.420654,661.153870 611.092834,662.598328
	C615.941467,673.017395 620.563477,683.546936 625.646484,693.849487
	C627.557129,697.722168 627.160034,700.384766 624.446838,703.699463
	C596.621399,737.693054 561.010681,759.017334 518.533264,769.306946
	C517.896667,769.461121 517.267212,769.649048 516.644226,769.851379
	C516.500732,769.898010 516.397583,770.068909 516.275879,770.182678
	C519.335083,796.543579 541.229004,805.521118 572.868469,805.415771
	C573.908081,811.062439 573.099426,816.825134 573.427429,822.265930
	C571.989136,823.951660 570.382935,823.367615 568.965881,823.368225
	C507.136627,823.395996 445.307343,823.395081 383.478088,823.389160
	C376.932129,823.388550 376.932129,823.364746 376.914917,816.680603
	C376.889771,806.913330 376.881317,806.862000 386.146515,805.334900
	C392.360077,804.310852 398.718353,804.278564 404.840179,802.584900
	C416.111267,799.466797 425.121948,793.577759 430.237305,782.577454
	C433.063599,776.499756 432.217651,774.820190 425.661072,774.363281
	C393.539825,772.125183 362.715576,764.714844 333.203705,751.690979
	C289.773529,732.524658 255.950287,702.435242 230.964539,662.289551
	C208.160263,625.648926 194.037811,585.850891 187.428406,543.187927
	C183.465424,517.607239 181.617996,491.944092 182.868469,466.169312
	C184.849976,425.327240 190.961731,385.142731 206.343445,346.930389
	C231.718842,283.891022 272.374023,233.971542 333.052032,201.775925
	C359.578278,187.701157 388.058441,179.302673 417.677216,174.536163
	C439.741241,170.985428 461.922302,169.035461 484.244110,169.753082
	C526.842346,171.122543 568.361694,177.810669 606.635437,197.837097
	C631.386108,210.787750 652.171631,228.468140 663.933960,254.382233
	C678.671875,286.851990 675.714294,318.469330 654.581909,347.280914
	C634.864807,374.162842 606.992493,390.434021 576.813354,403.151917
	C549.593689,414.622711 520.768616,421.145691 492.853973,430.472595
	C481.787415,434.170166 470.803131,438.049744 460.943268,444.506439
	C446.699524,453.833862 436.615845,466.360565 432.976349,483.139496
	C430.871613,492.842865 431.400879,502.706757 436.451569,511.765961
	C437.483887,513.617615 438.335297,515.711853 441.293671,516.368225
	C443.765991,511.730682 443.160370,506.548309 442.417419,501.926208
	C439.027893,480.838806 448.249512,465.683105 464.577454,454.114441
	C479.199524,443.754486 496.611969,439.937958 513.079041,434.376801
	C514.958069,436.644623 514.307800,438.725067 514.312256,440.636078
	C514.361877,461.967926 514.446533,483.300751 514.259949,504.631073
	C514.220947,509.095032 515.398132,510.833435 520.142334,510.753143
	C535.303711,510.496490 550.516785,511.396545 565.627686,510.485748
	C591.287476,508.939148 615.645691,502.832001 635.646851,485.279755
	C651.442200,471.418396 660.264954,453.691040 663.648193,433.135956
	C666.704285,414.568787 666.778625,396.087677 661.680420,377.790741
	C660.467102,373.436462 658.873230,369.256653 656.641052,365.330780
	C655.457520,363.249146 655.257812,361.525665 657.133728,359.512817
	C672.999451,342.489227 680.363220,321.823334 682.758667,299.064270
	C682.823669,298.446655 683.160522,297.857635 683.551819,296.736145
	C691.251160,299.337708 697.469788,304.017151 703.439819,308.926270
	C726.049133,327.517975 739.005310,351.576599 743.433411,380.392700
	C747.862000,409.211761 745.357422,437.086700 732.038391,463.438080
	C718.379089,490.462677 696.483704,508.250641 668.773193,519.463867
	C659.330811,523.284790 649.523315,525.784912 639.613708,527.991394
	C633.236755,529.411255 632.793213,530.439514 636.383118,535.789856
	C647.436096,552.263184 657.759094,569.179565 667.141846,586.654114
	C685.667847,621.157166 701.954224,656.768005 719.088379,691.960266
	C729.114014,712.552124 740.323486,732.349365 757.482971,748.140564
	C773.062378,762.477661 790.479187,772.343384 812.351318,771.923279
	C816.514587,771.843323 818.258423,773.241943 817.465088,777.447998
	C817.282715,778.414673 817.397400,779.443481 817.423828,780.442444
	C817.710754,791.302856 817.679443,791.032166 806.892334,792.386902
	C791.154053,794.363525 775.360413,794.964111 759.568787,794.251160
	C733.798950,793.087769 709.051819,788.066833 687.712463,772.273499
	C671.500977,760.275452 660.453125,744.074646 651.464539,726.410339
	C637.187195,698.352966 625.347229,669.156433 611.877319,640.712280
	C595.540039,606.213074 578.149536,572.306946 558.347656,539.653809
	C556.020081,535.815674 553.231628,534.127686 548.625671,534.280762
	C538.970276,534.601501 529.292786,534.546814 519.632629,534.309387
	C514.841248,534.191711 513.526794,536.533203 513.595825,540.714600
	C514.517578,596.535828 513.855286,652.362671 514.227966,708.185364
	C514.260132,713.001221 512.584106,714.710510 507.934845,715.659119
	C486.328674,720.067139 464.781830,720.421692 443.047546,716.593628
	C437.740021,715.658813 436.530945,713.447083 436.549561,708.436340
	C436.722321,661.940002 436.576538,615.442505 436.758057,568.946289
	C436.778076,563.819641 435.243683,560.771179 430.754852,558.134094
	C412.234833,547.253967 396.974823,533.015137 388.864197,512.667419
	C376.929626,482.726379 384.204895,442.736420 411.435577,418.571198
	C428.272522,403.629669 448.181946,395.447174 469.436920,389.723724
	C483.561432,385.920288 497.823822,382.599854 511.855865,378.487885
	C540.090576,370.213959 565.855347,357.536652 585.653320,334.915680
	C597.748718,321.095581 604.178467,304.673553 604.353821,286.570160
	C604.530396,268.344330 596.655640,252.592865 584.304260,239.422974
	C564.004150,217.777634 538.844788,204.911575 509.595764,200.407867
	C449.865753,191.210785 401.117828,212.612610 360.638794,255.355957
	C328.719452,289.060852 309.176422,329.527527 298.432312,374.401733
	C292.816925,397.855316 289.721497,421.671478 288.136444,445.761108
	C286.788025,466.254578 286.547211,486.764923 287.539276,507.189301
	C289.777740,553.274414 298.964050,597.692444 321.340485,638.792542
	C347.466339,686.779358 387.103424,715.956421 440.627075,726.375305
	C451.742096,728.538879 463.032104,729.248169 474.797546,729.619019
z"/>
<path fill="white" opacity="1.000000" stroke="none"
	d="
M551.998169,275.619751
	C564.851257,275.252350 577.016296,277.139801 589.213257,278.665894
	C591.774109,278.986328 593.926392,279.930878 594.036621,282.769135
	C594.421570,292.685242 592.692444,302.175903 588.058899,311.510590
	C579.209656,307.379944 570.466675,304.544006 561.248108,302.998230
	C547.035156,300.614929 532.750427,301.038239 518.456970,301.015503
	C514.736755,301.009583 514.199524,303.106873 514.212891,306.197296
	C514.294922,325.193298 514.155396,344.191010 514.366272,363.185059
	C514.409180,367.043152 512.794006,368.426788 509.441711,369.242889
	C485.695435,375.023865 461.881500,380.583588 439.008118,389.420074
	C438.576447,389.586853 438.042114,389.487976 437.537537,389.513977
	C436.090851,387.911346 436.716278,386.011902 436.659210,384.262695
	C436.209106,370.465179 437.008575,356.678711 435.803528,342.848541
	C433.788818,319.725952 418.888824,302.454254 396.185913,298.377106
	C392.432343,297.703033 388.686798,296.921143 384.902924,296.500732
	C382.274384,296.208618 381.758026,294.831390 381.598175,292.525146
	C380.432007,275.698456 380.397491,275.663849 397.028168,275.654694
	C448.518341,275.626404 500.008484,275.628937 551.998169,275.619751
z"/>
</svg>
